<svg id="Layer_1" data-name="Layer 1" xmlns="http://www.w3.org/2000/svg" viewBox="0 0 181.3 105.6"><defs><style>.cls-1{fill:#696a6d;}.cls-2{fill:#f15d2a;}.cls-3{fill:#fff;}</style></defs><title>c5</title><path class="cls-1" d="M157.8,411.9v8.2c0,11.9,6.2,11.9,9.6,11.9,1.2,0,4.2,0,6.3-2.2,1.5-1.6,2.3-3.9,2.3-7.1a0.68,0.68,0,0,0-.7-0.7H172a0.75,0.75,0,0,0-.7.6c-0.1,4.8-2.7,5.5-4.2,5.5-2.5,0-4.8-.6-4.8-7.6v-7.8c0-4.3.6-5.4,0.7-5.7l0.1-.1v-0.1c0.1-.3,1.2-2,4-2a4.83,4.83,0,0,1,3,1.1,5.63,5.63,0,0,1,.8,3.4v0.3a1.06,1.06,0,0,0,.2.5,0.76,0.76,0,0,0,.5.2h3.3a0.58,0.58,0,0,0,.6-0.6v-0.9c0-2.6-.6-4.4-1.8-5.7s-3.4-2.1-6.2-2.1C160.8,401,157.8,404.4,157.8,411.9Z" transform="translate(-157.8 -326.4)"/><path class="cls-1" d="M179.3,416.1h0a0.68,0.68,0,0,0,.7.7h3a0.68,0.68,0,0,0,.7-0.7v-0.2a2.72,2.72,0,0,1,.7-2,3.6,3.6,0,0,1,4.4-.1,4.73,4.73,0,0,1,.9,3.4V418c-3.3-.1-6.9.2-9,2.2a6.11,6.11,0,0,0-1.7,4.5c0,4.8,1.9,7.1,5.9,7.1a5.12,5.12,0,0,0,4.8-2.5v1.5a0.68,0.68,0,0,0,.7.7h3a0.76,0.76,0,0,0,.5-0.2,0.44,0.44,0,0,0,.1-0.5,41.36,41.36,0,0,1-.4-4.5v-9.8c0-4.4-2.3-6.5-7-6.5S179.5,411.9,179.3,416.1Zm3.3,9c0-3.4,2.8-3.7,6.4-3.7h0.3v0.7q0,3.9-1.5,5.4a3.31,3.31,0,0,1-2.4,1C183.7,428.4,182.6,427.1,182.6,425.1Z" transform="translate(-157.8 -326.4)"/><path class="cls-1" d="M207.3,410h0c-2.7,0-4.4.5-5.7,2.5V411a0.68,0.68,0,0,0-.7-0.7h-2.8a0.68,0.68,0,0,0-.7.7v19.8a0.68,0.68,0,0,0,.7.7h2.8a0.68,0.68,0,0,0,.7-0.7V419c0-3.4,1.4-5.2,4.2-5.2l1.3,0.1h0.1a0.48,0.48,0,0,0,.5-0.2,0.76,0.76,0,0,0,.2-0.5v-2.8a1.06,1.06,0,0,0-.2-0.5A0.48,0.48,0,0,1,207.3,410Z" transform="translate(-157.8 -326.4)"/><path class="cls-1" d="M201,413.7h0Z" transform="translate(-157.8 -326.4)"/><path class="cls-1" d="M211.5,401.6a0.68,0.68,0,0,0-.7.7v28.6a0.68,0.68,0,0,0,.7.7h2.8a0.68,0.68,0,0,0,.7-0.7v-1.2a5.19,5.19,0,0,0,4.4,2.2c3.2,0,7-1.2,7-10.6,0-6-.5-11.3-7.1-11.3a5.31,5.31,0,0,0-4.2,2v-9.7a0.68,0.68,0,0,0-.7-0.7h-2.9Zm4.8,26.1h0c-1.4-1.4-1.4-4.6-1.4-6.9v-0.7c0-3.3.4-6.7,3.5-6.7s3.7,2.4,3.7,7.9c0,3.8-.3,7.1-3.8,7.1A2.72,2.72,0,0,1,216.3,427.7Z" transform="translate(-157.8 -326.4)"/><path class="cls-1" d="M229.2,421.2c0,9.8,4.2,10.7,8.1,10.7s8.1-.8,8.1-10.7c0-5.9-.6-11.3-8.1-11.3S229.2,415.3,229.2,421.2Zm4.2-1.4c0-5.3,1.6-6.4,3.9-6.4s3.9,1.1,3.9,6.4c0,6.7-.9,8.6-3.9,8.6S233.4,426.5,233.4,419.8Z" transform="translate(-157.8 -326.4)"/><path class="cls-1" d="M252.9,412.4V411a0.68,0.68,0,0,0-.7-0.7h-2.9a0.68,0.68,0,0,0-.7.7c0.1,1.5.2,2.8,0.2,3.9v15.9a0.68,0.68,0,0,0,.7.7h2.7a0.68,0.68,0,0,0,.7-0.7V419c0-3.9,1.2-5.6,3.8-5.6,2.2,0,3.2,1.1,3.2,3.6v13.8a0.68,0.68,0,0,0,.7.7h2.7a0.61,0.61,0,0,0,.6-0.7V417c0-4.9-1.7-7-5.8-7C255.6,410,254.1,410.7,252.9,412.4Z" transform="translate(-157.8 -326.4)"/><path class="cls-1" d="M278.8,401.6a0.68,0.68,0,0,0-.7.7v28.6a0.68,0.68,0,0,0,.7.7H282a0.68,0.68,0,0,0,.7-0.7V418.2h9.5a0.68,0.68,0,0,0,.7-0.7v-2.7a0.68,0.68,0,0,0-.7-0.7h-9.5v-8.6h10.1a0.61,0.61,0,0,0,.6-0.7v-2.7a0.67,0.67,0,0,0-.6-0.7h-14v0.2Z" transform="translate(-157.8 -326.4)"/><path class="cls-1" d="M297.7,401.6a0.68,0.68,0,0,0-.7.7v3a0.68,0.68,0,0,0,.7.7h3.2a0.68,0.68,0,0,0,.7-0.7v-3a0.68,0.68,0,0,0-.7-0.7h-3.2Zm0.2,8.8a0.68,0.68,0,0,0-.7.7v19.8a0.68,0.68,0,0,0,.7.7h2.7a0.68,0.68,0,0,0,.7-0.7V411a0.68,0.68,0,0,0-.7-0.7h-2.7v0.1Z" transform="translate(-157.8 -326.4)"/><path class="cls-1" d="M318.5,410.4a0.56,0.56,0,0,0-.6.5s-3.9,13.7-4.5,15.9c-0.2-.6-4.2-15.9-4.2-15.9a0.63,0.63,0,0,0-.6-0.5h-3.1a0.55,0.55,0,0,0-.5.3,0.66,0.66,0,0,0-.1.6l5.9,19.8a0.63,0.63,0,0,0,.6.5h3.9a0.63,0.63,0,0,0,.6-0.5l6.2-19.8a0.66,0.66,0,0,0-.1-0.6,0.55,0.55,0,0,0-.5-0.3h-3Z" transform="translate(-157.8 -326.4)"/><path class="cls-1" d="M323.4,421.2c0,9.8,4.2,10.7,8.1,10.7,4.6,0,7.3-2.4,7.4-6.7a1.06,1.06,0,0,0-.2-0.5,0.76,0.76,0,0,0-.5-0.2h-3.1a0.65,0.65,0,0,0-.6.6c-0.2,2-1.4,3.3-3.2,3.3s-3.6-.5-3.7-6.1h10.8a0.68,0.68,0,0,0,.7-0.7v-1.5c0-7.6-2-10.3-7.6-10.3C324,410,323.4,415.3,323.4,421.2Zm7.8-8c2,0,3.6.5,3.7,5.9h-7.2C327.9,413.9,329.5,413.2,331.2,413.2Z" transform="translate(-157.8 -326.4)"/><path class="cls-2" d="M279.2,368a5.11,5.11,0,0,0,1.8-5.4l-10.7-32.8a5.17,5.17,0,0,0-4.6-3.4H231.2a5.17,5.17,0,0,0-4.6,3.4l-10.7,32.8a5.11,5.11,0,0,0,1.8,5.4l27.9,20.3a5.33,5.33,0,0,0,5.7,0Z" transform="translate(-157.8 -326.4)"/><path class="cls-3" d="M270.7,357a1.75,1.75,0,0,1-1.7,2.4H228.2a1.68,1.68,0,0,1-1.7-2.4l6.5-20.1a3.69,3.69,0,0,1,3.3-2.4h24.6a3.69,3.69,0,0,1,3.3,2.4l1.1,3.4a1.71,1.71,0,0,1-1.7,2.4H243.4a3.69,3.69,0,0,0-3.3,2.4l-1.1,3.5a1.77,1.77,0,0,0,1.8,2.4h25.5a3.69,3.69,0,0,1,3.3,2.4Z" transform="translate(-157.8 -326.4)"/><path class="cls-3" d="M233.5,368.6c-1.1-.8-0.9-1.5.5-1.5h29.2c1.4,0,1.6.7,0.5,1.5l-13,9.5a3.8,3.8,0,0,1-4.1,0Z" transform="translate(-157.8 -326.4)"/></svg>