<?xml version="1.0" encoding="utf-8"?>
<!-- Generator: Adobe Illustrator 19.1.0, SVG Export Plug-In . SVG Version: 6.00 Build 0)  -->
<svg version="1.1" id="Layer_1" xmlns="http://www.w3.org/2000/svg" xmlns:xlink="http://www.w3.org/1999/xlink" x="0px" y="0px"
	 viewBox="0 0 306 72.5" style="enable-background:new 0 0 306 72.5;" xml:space="preserve">
<style type="text/css">
	.st0{fill:#F05671;}
</style>
<g>
	<path class="st0" d="M39.3,54.5h9.4v-35c0,0-4.4-1.5-9.4-1.5V54.5z"/>
	<path class="st0" d="M123.4,40c0,4.7-2,6.7-5.9,6.7v0c-0.2,0-0.4,0-0.6,0c-0.2,0-0.4,0-0.6,0v0c-3.9-0.1-5.9-2.1-5.9-6.7V19.5
		c0,0-4.2-1.5-9.4-1.5v22c0,9.8,5,15.3,15.8,15.3c10.3,0,15.8-5.5,15.8-15.3V19.5c0,0-4.5-1.5-9.4-1.5V40z"/>
	<path class="st0" d="M234.2,37.7v3.6c-0.3,3.8-2.3,5.5-5.9,5.5v0c-0.2,0-0.4,0-0.6,0c-0.2,0-0.4,0-0.6,0v0
		c-3.9-0.1-5.7-2.1-5.7-6.7V19.5c0,0-4.8-1.5-9.5-1.5v22c0,9.8,5,15.3,15.8,15.3c2.4,0,4.5-0.3,6.4-0.9v2.8c0,5.1-2.3,7-7,6.7v8.5
		c10.7,1.1,16.4-5.3,16.4-15.3V41.5c0-0.5,0.1-1,0.1-1.6V19.5c0,0-4.6-1.5-9.4-1.5V37.7z"/>
	<path class="st0" d="M85.5,21.8v-2.3c0,0-3.3-1.4-8.9-1.4v36.5h9.4V37c0-2.9,0.4-5.9,2.3-7.9c2.1-2.3,5.2-2.7,9-2.3v-8.8
		C93.1,17.8,88.5,18.1,85.5,21.8z"/>
	<path class="st0" d="M152.8,31.6c-4.5-0.7-7.2-1.3-7.2-3.3c0-1.3,1.8-2.9,6.1-2.9c3.5,0,5.5,1.3,6.1,3h9.7
		c-1.2-6.9-7.4-11.4-15.8-11.4c-10.6,0-15.6,6-15.6,11.7c0,8.1,8.7,9.9,15.2,10.9c6.4,1,7.7,1.8,7.7,3.9c0,2.1-2.8,3.3-6.6,3.3
		c-2.8,0-6.5-1.1-7.8-4.3h-9.5c1.1,7.9,8,12.8,17.3,12.8c9.4,0,16-5.1,16-12.3C168.4,35.1,161.9,33.1,152.8,31.6z"/>
	<path class="st0" d="M260.7,39.2V26.3h6.6V18h-6.6V8.7c0,0-4.4-1.5-9.4-1.5v1.3V18h-4.4v8.3h4.4v12.8c0,10,5.7,16.4,16.4,15.3v-8.5
		C263,46.2,260.7,44.3,260.7,39.2z"/>
	<path class="st0" d="M295.2,42.8c-1.6,2.9-4.6,4.3-7.7,4.3c-4.4,0-7.9-2.8-9.1-7.2l27.6,0c1.3-14.5-7.6-22.8-18.4-22.8
		c-10.3,0-18.7,8.7-18.7,19.2c0,10.6,8.5,19.1,18.7,19c9.1,0,15.5-5,17.6-12.5L295.2,42.8z M287.5,25.2c4.5,0,8,2.7,9.1,6.9l-18.1,0
		C279.8,27.9,283.2,25.2,287.5,25.2z"/>
	<circle class="st0" cx="44" cy="10.9" r="5.4"/>
	<path class="st0" d="M189.5,17.1L189.5,17.1C189.4,17.1,189.4,17.1,189.5,17.1C189.4,17.1,189.4,17.1,189.5,17.1L189.5,17.1
		c-3.6,0-6.8,0.9-9.5,2.4v-18c0,0-4.4-1.5-9.4-1.5v36.1c0,0,0,0,0,0c0,0,0,0,0,0v0.2l0,0.4c0.1,10.4,7.9,18.5,18.7,18.6v0
		c0,0,0,0,0,0c0,0,0,0,0,0v0c10.9-0.1,18.8-8.7,18.8-19.2C208.2,25.6,200.4,17.2,189.5,17.1z M189.4,46.8c-5.1,0-9.3-4.8-9.3-10.7
		c0-5.7,4.2-10.5,9.3-10.5c5.2,0,9.3,4.8,9.3,10.5C198.7,42,194.6,46.8,189.4,46.8z"/>
</g>
<g>
	<path class="st0" d="M18.5,46.6c-5.1,0-9.2-4.7-9.2-10.4c0-5.6,4.1-10.4,9.2-10.4c3.4,0,6.3,2.1,7.5,4.6h9.8
		c-1.3-5-4.3-8.8-8.4-10.9c-1.5,1-3.3,1.5-5,1.5c-0.3,0-0.6,0-0.8,0c-0.8-0.1-1.6-0.3-2.2-0.6l-0.7,0.2C18,20.9,17.1,21,16.2,21
		c-1.9,0-3.9-0.6-5.8-1.8C4.1,22.3,0,28.7,0,36.2C0,46.6,7.7,55,18.5,55c8.7,0,15.3-4.8,17.4-13h-9.8C24.9,44.5,21.9,46.6,18.5,46.6
		z"/>
	<path class="st0" d="M27,11.3c-1.4,3.1-4.7,5.4-6.9,6.4c0.5,0.5,1.2,0.8,2.2,0.9c1.9,0.2,3.7-0.5,5.2-1.8c3.8-3.2,4-10.2,3.7-11.2
		c-4.6,3.2-7.8,2.9-10.8,6.6c-0.7,0.8-1.1,2-1.1,3.1C20.1,15.3,24.2,13.9,27,11.3z"/>
</g>
<path class="st0" d="M9.2,7.5c4.2,0.5,7.4,3,8.9,4.5c0.1-0.3,0.3-0.5,0.5-0.8c0.7-0.8,1.4-1.4,2.1-1.9c-0.2-0.3-0.7-0.8-0.9-1
	C15.8,4.4,9.2,5.1,2.9,1.1C4.2,5.3,4.2,11.2,9,15.3c3.5,3,6.9,3.7,9.4,2.9C18.1,15.9,13.8,10.5,9.2,7.5z"/>
<path class="st0" d="M65.8,39.2V26.3h6.6V18h-6.6V8.7c0,0-4.4-1.5-9.4-1.5V18H52v8.3h4.4v12.8c0,10,5.7,16.4,16.4,15.3v-8.5
	C68.1,46.2,65.8,44.3,65.8,39.2z"/>
</svg>
